<svg version="1.1" id="Layer_1" xmlns="http://www.w3.org/2000/svg" xmlns:xlink="http://www.w3.org/1999/xlink" x="0px" y="0px"
	 width="100%" viewBox="0 0 632 395" enable-background="new 0 0 632 395" xml:space="preserve">
<path fill="#000000" opacity="1.000000" stroke="none" 
	d="
M460.000000,396.000000 
	C306.703857,396.000000 153.907684,396.000000 1.055764,396.000000 
	C1.055764,264.402557 1.055764,132.805084 1.055764,1.103806 
	C211.546173,1.103806 422.092438,1.103806 632.819336,1.103806 
	C632.819336,132.666458 632.819336,264.333221 632.819336,396.000000 
	C575.471680,396.000000 517.985840,396.000000 460.000000,396.000000 
M433.931458,165.070267 
	C433.931458,165.070267 433.984100,165.067154 434.088196,165.557404 
	C434.369751,165.710068 434.651337,165.862732 434.921478,166.083740 
	C434.921478,166.083740 434.989777,166.095474 435.237885,166.766373 
	C438.268951,169.356766 440.679230,169.431030 442.090302,165.089630 
	C442.090302,165.089630 442.083984,165.001160 442.582184,164.923843 
	C442.728180,164.638489 442.874176,164.353134 443.082306,164.075653 
	C443.082306,164.075653 443.084991,164.013031 443.704895,163.793762 
	C444.470581,162.573593 445.236267,161.353409 446.510529,159.963028 
	C446.682556,159.914429 446.854553,159.865845 447.809113,159.946747 
	C450.845642,158.989349 453.882202,158.031937 457.724396,156.977783 
	C459.506836,156.528290 461.289246,156.078812 463.648315,155.483917 
	C460.554291,148.938370 457.145721,144.049637 451.710907,140.057938 
	C445.082916,135.189896 439.389313,129.049622 432.668945,122.888779 
	C439.807922,117.570671 445.787659,112.861221 452.055634,108.573074 
	C454.542450,106.871750 454.527039,105.476471 452.944641,103.482727 
	C447.860596,97.076950 442.853943,90.603134 437.535004,84.397690 
	C436.766357,83.500900 433.908417,83.175377 432.936768,83.870590 
	C426.730774,88.310982 420.700104,93.010109 414.773987,97.823837 
	C409.790924,101.871529 407.499237,101.833595 403.000916,97.612091 
	C398.493408,93.382004 393.816864,89.321121 389.040466,85.397797 
	C388.100983,84.626099 385.978363,84.146225 385.063843,84.675781 
	C378.224548,88.636002 371.596466,92.958725 364.807465,97.009048 
	C361.541656,98.957436 362.223724,101.349533 364.147919,103.354378 
	C367.816956,107.177208 371.830444,110.671158 375.727753,114.272675 
	C379.194885,117.476662 382.698273,120.641457 386.700409,124.293274 
	C381.736206,129.782913 377.116180,135.100815 372.245300,140.178070 
	C370.229309,142.279495 369.369110,143.651367 371.632050,146.360611 
	C375.278595,150.726379 378.309021,155.603836 381.646271,160.231537 
	C387.114410,167.814133 390.264374,167.764145 396.113861,160.593231 
	C400.041138,155.778717 404.345276,151.260147 408.670502,146.792786 
	C409.415344,146.023453 411.686523,145.498962 412.277161,146.003448 
	C418.360687,151.199432 424.243408,156.630569 430.230438,162.629745 
	C431.121765,163.084320 432.013092,163.538879 432.908417,164.078873 
	C432.908417,164.078873 432.993896,164.076294 433.091736,164.565170 
	C433.282867,164.882797 433.563568,165.033615 433.931458,165.070267 
M460.385223,271.127258 
	C459.903198,271.738922 459.421173,272.350586 458.314880,273.226685 
	C451.649536,278.618134 445.072540,284.123779 438.293091,289.367676 
	C431.985352,294.246704 425.016388,298.356140 419.142242,303.689575 
	C411.140106,310.955170 403.925293,319.105377 391.576385,317.322998 
	C391.312744,317.284943 391.011383,317.699799 390.703949,317.745941 
	C382.985504,318.905670 375.263947,320.044189 366.533661,321.005188 
	C358.336273,320.983063 350.138184,320.899536 341.942230,320.996918 
	C340.512360,321.013916 339.091583,321.792908 336.828094,322.095093 
	C331.653717,321.392944 326.462921,320.793274 321.308716,319.965424 
	C312.944000,318.621826 304.490417,317.589508 296.281708,315.579102 
	C286.567993,313.200195 277.069489,309.938782 267.486938,307.029510 
	C260.976074,305.052856 254.358551,303.346680 248.010101,300.936432 
	C240.180908,297.964050 232.498138,294.564911 224.906631,291.019287 
	C217.502121,287.561005 210.292435,283.685547 202.994064,280.016479 
	C202.994064,280.016479 203.019211,280.010986 202.775818,279.443054 
	C202.385178,279.363800 201.994537,279.284546 201.472794,279.074249 
	C201.472794,279.074249 201.292755,279.118408 200.913025,278.528625 
	C199.958969,277.998444 199.004929,277.468231 197.795898,276.372253 
	C197.205444,276.209717 196.614975,276.047180 196.024460,275.951965 
	C196.024460,275.951965 196.090988,275.941376 195.732895,275.324860 
	C193.037979,274.451508 190.555420,274.394135 194.279449,270.616302 
	C199.787109,265.029053 202.770294,257.917114 203.075623,249.690155 
	C203.616425,235.118576 198.048187,222.358032 190.619019,210.681534 
	C186.662598,204.463211 180.318237,199.006958 173.850250,195.307022 
	C161.680481,188.345428 148.231522,185.496323 133.888474,185.847870 
	C117.996796,186.237366 105.683990,197.435867 103.014526,212.795197 
	C102.359818,216.562225 100.532265,220.118164 99.791359,223.878998 
	C98.349716,231.196838 94.499390,238.342468 97.604454,246.092316 
	C99.447830,250.693176 101.145683,255.387817 103.425896,259.771393 
	C109.833557,272.089722 120.540016,280.012878 133.324127,283.616699 
	C142.470291,286.194916 152.584595,285.424835 162.278854,285.910492 
	C164.618866,286.027740 167.006073,285.202606 169.371582,284.810852 
	C169.421555,285.144409 169.471542,285.477936 169.521515,285.811493 
	C168.326096,286.790924 167.130676,287.770325 164.993011,289.521759 
	C168.995209,292.849854 172.572464,295.824554 176.705338,299.169312 
	C179.253220,301.017029 181.801086,302.864777 184.853882,305.370819 
	C187.282013,306.903381 189.573288,308.736084 192.161957,309.916565 
	C203.319656,315.004547 214.417618,320.274200 225.817673,324.766174 
	C238.008011,329.569489 250.473267,333.692047 262.895508,337.883514 
	C270.542877,340.463898 278.265503,342.889923 286.085907,344.864166 
	C291.121399,346.135345 296.404419,346.405090 301.560822,347.222687 
	C311.364319,348.777191 321.156555,350.402710 331.390259,352.760193 
	C343.298950,352.838196 355.207581,352.932373 367.116364,352.951202 
	C367.783478,352.952271 368.451569,352.331909 369.963165,352.001923 
	C382.848236,349.989319 395.760925,348.134094 408.602997,345.876892 
	C412.963074,345.110504 417.800507,344.264557 421.276855,341.825775 
	C429.468018,336.079346 436.891052,329.250427 444.772064,323.046448 
	C456.354523,313.928589 468.703430,305.757294 478.798462,294.824158 
	C480.612091,292.859924 483.097778,291.516235 485.506592,289.711151 
	C486.859924,293.939362 487.856079,297.840485 489.428864,301.493317 
	C489.912140,302.615723 492.351349,304.018402 493.251770,303.663025 
	C501.201355,300.525635 509.039032,297.092468 516.801758,293.512543 
	C517.571838,293.157379 518.210876,291.063049 517.911011,290.081268 
	C516.085876,284.105621 514.201538,278.126556 511.889069,272.327209 
	C509.518707,266.382812 506.634857,260.643188 503.963776,254.432495 
	C503.963776,254.432495 503.822754,254.075989 503.954224,253.408234 
	C502.861542,250.669037 502.243927,247.593155 500.586395,245.254257 
	C495.763977,238.449448 488.988922,235.339432 480.568756,236.044220 
	C472.226471,236.742493 463.888580,237.531982 455.533691,238.025772 
	C450.730072,238.309662 445.893463,237.981659 441.077148,238.119522 
	C436.061951,238.263077 434.880157,240.004517 435.907715,244.812317 
	C437.362244,251.617630 438.890839,258.420563 439.937042,265.293121 
	C440.358765,268.063568 441.316895,269.052307 443.976135,268.985443 
	C449.452942,268.847717 454.933197,268.847076 460.555328,268.923065 
	C460.555328,268.923065 460.743286,268.869049 460.998230,269.531830 
	C460.973267,270.002136 460.948303,270.472412 460.984741,270.996277 
	C460.984741,270.996277 460.944794,270.925446 460.385223,271.127258 
M176.033722,134.427643 
	C170.056381,140.880371 170.398239,142.142822 178.080032,146.042419 
	C184.658539,149.381958 191.011475,153.165833 197.582443,156.818924 
	C202.150177,150.954376 206.686493,145.019974 211.345779,139.183777 
	C214.918472,134.708618 214.591919,135.106415 218.102692,139.795807 
	C223.478470,146.976318 229.546707,153.638428 236.273087,161.655304 
	C243.310638,153.153641 249.565445,145.597580 255.941360,137.895218 
	C250.274292,130.918747 244.574875,123.902451 238.701599,116.672119 
	C247.480148,110.930344 255.993607,105.361954 264.714203,99.658073 
	C257.579254,92.359383 251.291214,85.757187 244.739838,79.427567 
	C243.862549,78.579964 241.255615,78.446312 240.133667,79.120445 
	C235.975998,81.618561 231.954269,84.405472 228.166046,87.439201 
	C223.953262,90.812927 218.462921,91.838615 215.784210,89.250267 
	C210.805511,84.439499 205.837936,79.617210 200.798859,74.734932 
	C192.895432,82.396904 185.593277,89.475967 178.212418,96.631332 
	C184.436981,102.067734 189.701416,106.665573 193.731644,110.185478 
	C192.010162,112.616623 190.449417,114.869118 188.839066,117.085602 
	C184.761368,122.698181 180.661392,128.294586 176.033722,134.427643 
z"/>
<path fill="#43FC42" opacity="1.000000" stroke="none" 
	d="
M503.975769,254.813934 
	C506.634857,260.643188 509.518707,266.382812 511.889069,272.327209 
	C514.201538,278.126556 516.085876,284.105621 517.911011,290.081268 
	C518.210876,291.063049 517.571838,293.157379 516.801758,293.512543 
	C509.039032,297.092468 501.201355,300.525635 493.251770,303.663025 
	C492.351349,304.018402 489.912140,302.615723 489.428864,301.493317 
	C487.856079,297.840485 486.859924,293.939362 485.506592,289.711151 
	C483.097778,291.516235 480.612091,292.859924 478.798462,294.824158 
	C468.703430,305.757294 456.354523,313.928589 444.772064,323.046448 
	C436.891052,329.250427 429.468018,336.079346 421.276855,341.825775 
	C417.800507,344.264557 412.963074,345.110504 408.602997,345.876892 
	C395.760925,348.134094 382.848236,349.989319 369.067780,351.942383 
	C355.766083,351.921448 343.359802,351.960114 330.953491,351.998718 
	C321.156555,350.402710 311.364319,348.777191 301.560822,347.222687 
	C296.404419,346.405090 291.121399,346.135345 286.085907,344.864166 
	C278.265503,342.889923 270.542877,340.463898 262.895508,337.883514 
	C250.473267,333.692047 238.008011,329.569489 225.817673,324.766174 
	C214.417618,320.274200 203.319656,315.004547 192.161957,309.916565 
	C189.573288,308.736084 187.282013,306.903381 185.023865,305.031555 
	C186.651947,304.080811 188.776627,303.885773 189.460663,302.790771 
	C194.141876,295.297180 198.520844,287.614807 202.997208,279.993256 
	C210.292435,283.685547 217.502121,287.561005 224.906631,291.019287 
	C232.498138,294.564911 240.180908,297.964050 248.010101,300.936432 
	C254.358551,303.346680 260.976074,305.052856 267.486938,307.029510 
	C277.069489,309.938782 286.567993,313.200195 296.281708,315.579102 
	C304.490417,317.589508 312.944000,318.621826 321.308716,319.965424 
	C326.462921,320.793274 331.653717,321.392944 337.741180,322.206818 
	C344.752869,322.333771 350.855408,322.487091 356.948517,322.311432 
	C360.487854,322.209351 364.011963,321.579041 367.542908,321.186462 
	C375.263947,320.044189 382.985504,318.905670 390.703949,317.745941 
	C391.011383,317.699799 391.312744,317.284943 391.576385,317.322998 
	C403.925293,319.105377 411.140106,310.955170 419.142242,303.689575 
	C425.016388,298.356140 431.985352,294.246704 438.293091,289.367676 
	C445.072540,284.123779 451.649536,278.618134 458.909546,272.989075 
	C459.984406,272.142761 460.464600,271.534088 460.944794,270.925446 
	C460.944794,270.925446 460.984741,270.996277 461.196320,270.891235 
	C461.520630,270.097595 461.633362,269.409027 462.077759,268.572845 
	C463.612244,268.265717 464.815033,268.106201 466.390442,267.977081 
	C467.510529,268.000366 468.258026,267.993225 469.345306,268.185791 
	C472.129608,268.567963 474.574127,268.750458 477.305542,268.984314 
	C477.974518,269.097107 478.356598,269.158539 478.800293,269.590027 
	C480.140625,273.740906 481.256073,277.587097 482.736542,281.287201 
	C484.912964,286.726501 486.197052,286.641266 490.072601,282.087280 
	C496.898163,274.066895 501.104767,264.803040 503.975769,254.813934 
z"/>
<path fill="#42FC41" opacity="1.000000" stroke="none" 
	d="
M176.149719,298.799255 
	C172.572464,295.824554 168.995209,292.849854 164.993011,289.521759 
	C167.130676,287.770325 168.326096,286.790924 169.521515,285.811493 
	C169.471542,285.477936 169.421555,285.144409 169.371582,284.810852 
	C167.006073,285.202606 164.618866,286.027740 162.278854,285.910492 
	C152.584595,285.424835 142.470291,286.194916 133.324127,283.616699 
	C120.540016,280.012878 109.833557,272.089722 103.425896,259.771393 
	C101.145683,255.387817 99.447830,250.693176 97.604454,246.092316 
	C94.499390,238.342468 98.349716,231.196838 99.791359,223.878998 
	C100.532265,220.118164 102.359818,216.562225 103.014526,212.795197 
	C105.683990,197.435867 117.996796,186.237366 133.888474,185.847870 
	C148.231522,185.496323 161.680481,188.345428 173.850250,195.307022 
	C180.318237,199.006958 186.662598,204.463211 190.619019,210.681534 
	C198.048187,222.358032 203.616425,235.118576 203.075623,249.690155 
	C202.770294,257.917114 199.787109,265.029053 194.279449,270.616302 
	C190.555420,274.394135 193.037979,274.451508 195.523254,275.655975 
	C193.534424,276.927979 191.324142,277.481537 190.061630,278.886658 
	C186.993805,282.301147 184.240982,286.023468 181.602264,289.790588 
	C179.592926,292.659149 177.953644,295.786865 176.149719,298.799255 
M139.682617,253.075256 
	C141.039536,253.731720 142.332306,254.694717 143.763901,254.994308 
	C152.289093,256.778320 160.163849,256.383606 168.296280,251.761520 
	C173.068787,249.049042 172.811493,246.199844 171.785858,242.876999 
	C170.469955,238.613846 168.060684,234.688812 166.130554,230.614288 
	C165.401672,229.075577 165.048798,227.176331 163.921997,226.037735 
	C155.761963,217.792343 145.158569,216.769760 134.980026,215.813980 
	C132.183533,224.290985 129.620041,232.061691 126.439896,241.701691 
	C129.826691,244.765808 134.367477,248.873947 139.682617,253.075256 
M180.620163,221.153046 
	C175.888458,222.471664 171.156754,223.790298 166.425064,225.108917 
	C167.106400,227.020752 167.566284,227.610718 167.883759,227.542084 
	C176.069107,225.772186 184.249420,223.974457 192.390747,222.015823 
	C192.938278,221.884125 193.171722,220.446838 193.551239,219.616760 
	C192.723068,219.274933 191.815063,218.520325 191.080505,218.662430 
	C187.833435,219.290527 184.636261,220.176590 180.620163,221.153046 
z"/>
<path fill="#44FB43" opacity="1.000000" stroke="none" 
	d="
M447.026581,159.817261 
	C446.854553,159.865845 446.682556,159.914429 445.952148,160.136047 
	C444.624207,161.543732 443.854614,162.778397 443.085022,164.013031 
	C443.084991,164.013031 443.082306,164.075653 442.880157,164.211853 
	C442.458282,164.546005 442.260284,164.763702 442.083984,165.001160 
	C442.083984,165.001160 442.090302,165.089630 441.654724,165.109924 
	C439.142670,165.451965 437.066223,165.773727 434.989777,166.095474 
	C434.989777,166.095474 434.921478,166.083740 434.783752,165.877197 
	C434.443909,165.449188 434.223267,165.248032 433.984100,165.067154 
	C433.984100,165.067154 433.931458,165.070267 433.790894,164.872482 
	C433.450592,164.454300 433.231781,164.254837 432.993896,164.076294 
	C432.993896,164.076294 432.908417,164.078873 432.801025,163.751724 
	C431.856445,162.948441 431.019257,162.472321 430.182037,161.996201 
	C424.243408,156.630569 418.360687,151.199432 412.277161,146.003448 
	C411.686523,145.498962 409.415344,146.023453 408.670502,146.792786 
	C404.345276,151.260147 400.041138,155.778717 396.113861,160.593231 
	C390.264374,167.764145 387.114410,167.814133 381.646271,160.231537 
	C378.309021,155.603836 375.278595,150.726379 371.632050,146.360611 
	C369.369110,143.651367 370.229309,142.279495 372.245300,140.178070 
	C377.116180,135.100815 381.736206,129.782913 386.700409,124.293274 
	C382.698273,120.641457 379.194885,117.476662 375.727753,114.272675 
	C371.830444,110.671158 367.816956,107.177208 364.147919,103.354378 
	C362.223724,101.349533 361.541656,98.957436 364.807465,97.009048 
	C371.596466,92.958725 378.224548,88.636002 385.063843,84.675781 
	C385.978363,84.146225 388.100983,84.626099 389.040466,85.397797 
	C393.816864,89.321121 398.493408,93.382004 403.000916,97.612091 
	C407.499237,101.833595 409.790924,101.871529 414.773987,97.823837 
	C420.700104,93.010109 426.730774,88.310982 432.936768,83.870590 
	C433.908417,83.175377 436.766357,83.500900 437.535004,84.397690 
	C442.853943,90.603134 447.860596,97.076950 452.944641,103.482727 
	C454.527039,105.476471 454.542450,106.871750 452.055634,108.573074 
	C445.787659,112.861221 439.807922,117.570671 432.668945,122.888779 
	C439.389313,129.049622 445.082916,135.189896 451.710907,140.057938 
	C457.145721,144.049637 460.554291,148.938370 463.648315,155.483917 
	C461.289246,156.078812 459.506836,156.528290 456.922119,157.018265 
	C453.088776,157.978256 450.057678,158.897751 447.026581,159.817261 
M410.849426,141.019592 
	C416.830841,135.523880 422.752625,129.961060 428.824463,124.567131 
	C431.094299,122.550743 430.687469,120.916649 428.723969,119.221527 
	C423.322083,114.557976 418.059509,109.697899 412.329773,105.474663 
	C410.955170,104.461502 407.465454,104.855171 405.843567,105.940033 
	C402.290985,108.316338 399.224945,111.459549 396.114624,114.450165 
	C386.332245,123.856216 386.648468,123.276985 396.747742,130.644623 
	C397.284760,131.036392 397.788422,131.473602 398.311707,131.884445 
	C402.295990,135.012619 406.281311,138.139496 410.849426,141.019592 
z"/>
<path fill="#44FA44" opacity="1.000000" stroke="none" 
	d="
M176.302032,134.162552 
	C180.661392,128.294586 184.761368,122.698181 188.839066,117.085602 
	C190.449417,114.869118 192.010162,112.616623 193.731644,110.185478 
	C189.701416,106.665573 184.436981,102.067734 178.212418,96.631332 
	C185.593277,89.475967 192.895432,82.396904 200.798859,74.734932 
	C205.837936,79.617210 210.805511,84.439499 215.784210,89.250267 
	C218.462921,91.838615 223.953262,90.812927 228.166046,87.439201 
	C231.954269,84.405472 235.975998,81.618561 240.133667,79.120445 
	C241.255615,78.446312 243.862549,78.579964 244.739838,79.427567 
	C251.291214,85.757187 257.579254,92.359383 264.714203,99.658073 
	C255.993607,105.361954 247.480148,110.930344 238.701599,116.672119 
	C244.574875,123.902451 250.274292,130.918747 255.941360,137.895218 
	C249.565445,145.597580 243.310638,153.153641 236.273087,161.655304 
	C229.546707,153.638428 223.478470,146.976318 218.102692,139.795807 
	C214.591919,135.106415 214.918472,134.708618 211.345779,139.183777 
	C206.686493,145.019974 202.150177,150.954376 197.582443,156.818924 
	C191.011475,153.165833 184.658539,149.381958 178.080032,146.042419 
	C170.398239,142.142822 170.056381,140.880371 176.302032,134.162552 
M228.059143,101.485870 
	C226.232819,99.338844 224.660339,96.863930 222.479172,95.175262 
	C221.287003,94.252281 218.508087,93.845070 217.400070,94.602608 
	C211.387878,98.713005 205.656662,103.237038 199.864670,107.665657 
	C197.323166,109.608902 196.872040,111.371582 199.400970,114.155174 
	C203.844193,119.045815 207.981522,124.272842 211.727417,129.716492 
	C213.950089,132.946503 215.735382,132.970413 218.517258,130.803894 
	C223.740829,126.735733 229.019089,122.732468 234.382492,118.851311 
	C237.305801,116.735893 237.634125,114.631508 235.420593,111.768776 
	C232.988708,108.623650 230.821152,105.274124 228.059143,101.485870 
z"/>
<path fill="#12FE12" opacity="1.000000" stroke="none" 
	d="
M466.017853,267.946655 
	C464.815033,268.106201 463.612244,268.265717 461.827759,268.612793 
	C461.078491,268.823273 460.910889,268.846161 460.743286,268.869049 
	C460.743286,268.869049 460.555328,268.923065 460.229279,268.572510 
	C457.170471,268.126740 454.421753,267.796600 451.707947,267.980713 
	C443.788055,268.518005 441.277618,266.513367 440.997284,258.713013 
	C440.824249,253.899200 441.002441,249.073776 440.932739,244.254852 
	C440.892090,241.445541 441.923340,239.797089 444.955994,239.862762 
	C458.687134,240.160187 472.424622,240.303802 486.143311,240.889587 
	C488.239655,240.979111 490.425140,242.872040 492.263184,244.319641 
	C496.222046,247.437607 499.981628,250.808563 503.822754,254.075989 
	C503.822754,254.075989 503.963776,254.432495 503.969788,254.623215 
	C501.104767,264.803040 496.898163,274.066895 490.072601,282.087280 
	C486.197052,286.641266 484.912964,286.726501 482.736542,281.287201 
	C481.256073,277.587097 480.140625,273.740906 479.158844,269.458466 
	C480.985474,267.995575 482.871429,267.331299 483.971436,266.011780 
	C486.336212,263.175201 488.967743,259.022522 485.722107,256.402557 
	C482.990234,254.197327 476.984680,252.670364 474.551605,254.206421 
	C470.096832,257.018829 466.055145,261.638733 466.017853,267.946655 
z"/>
<path fill="#12FE12" opacity="1.000000" stroke="none" 
	d="
M176.427521,298.984283 
	C177.953644,295.786865 179.592926,292.659149 181.602264,289.790588 
	C184.240982,286.023468 186.993805,282.301147 190.061630,278.886658 
	C191.324142,277.481537 193.534424,276.927979 195.702301,275.964233 
	C196.090988,275.941376 196.024460,275.951965 196.128387,276.200378 
	C196.842911,276.880981 197.453537,277.313141 198.322876,277.994232 
	C199.485336,278.534912 200.389053,278.826660 201.292755,279.118408 
	C201.292755,279.118408 201.472794,279.074249 201.741180,279.333801 
	C202.346115,279.732574 202.682663,279.871765 203.019211,280.010986 
	C203.019211,280.010986 202.994064,280.016479 202.995636,280.004883 
	C198.520844,287.614807 194.141876,295.297180 189.460663,302.790771 
	C188.776627,303.885773 186.651947,304.080811 184.771423,304.702393 
	C181.801086,302.864777 179.253220,301.017029 176.427521,298.984283 
z"/>
<path fill="#44FA44" opacity="1.000000" stroke="none" 
	d="
M503.888489,253.742096 
	C499.981628,250.808563 496.222046,247.437607 492.263184,244.319641 
	C490.425140,242.872040 488.239655,240.979111 486.143311,240.889587 
	C472.424622,240.303802 458.687134,240.160187 444.955994,239.862762 
	C441.923340,239.797089 440.892090,241.445541 440.932739,244.254852 
	C441.002441,249.073776 440.824249,253.899200 440.997284,258.713013 
	C441.277618,266.513367 443.788055,268.518005 451.707947,267.980713 
	C454.421753,267.796600 457.170471,268.126740 460.157623,268.505981 
	C454.933197,268.847076 449.452942,268.847717 443.976135,268.985443 
	C441.316895,269.052307 440.358765,268.063568 439.937042,265.293121 
	C438.890839,258.420563 437.362244,251.617630 435.907715,244.812317 
	C434.880157,240.004517 436.061951,238.263077 441.077148,238.119522 
	C445.893463,237.981659 450.730072,238.309662 455.533691,238.025772 
	C463.888580,237.531982 472.226471,236.742493 480.568756,236.044220 
	C488.988922,235.339432 495.763977,238.449448 500.586395,245.254257 
	C502.243927,247.593155 502.861542,250.669037 503.888489,253.742096 
z"/>
<path fill="#AEFEAC" opacity="1.000000" stroke="none" 
	d="
M331.171875,352.379456 
	C343.359802,351.960114 355.766083,351.921448 368.645813,351.941803 
	C368.451569,352.331909 367.783478,352.952271 367.116364,352.951202 
	C355.207581,352.932373 343.298950,352.838196 331.171875,352.379456 
z"/>
<path fill="#AEFEAC" opacity="1.000000" stroke="none" 
	d="
M367.038269,321.095825 
	C364.011963,321.579041 360.487854,322.209351 356.948517,322.311432 
	C350.855408,322.487091 344.752869,322.333771 338.160431,322.269257 
	C339.091583,321.792908 340.512360,321.013916 341.942230,320.996918 
	C350.138184,320.899536 358.336273,320.983063 367.038269,321.095825 
z"/>
<path fill="#44FA44" opacity="1.000000" stroke="none" 
	d="
M435.113831,166.430923 
	C437.066223,165.773727 439.142670,165.451965 441.610535,165.113861 
	C440.679230,169.431030 438.268951,169.356766 435.113831,166.430923 
z"/>
<path fill="#44FA44" opacity="1.000000" stroke="none" 
	d="
M447.417847,159.882004 
	C450.057678,158.897751 453.088776,157.978256 456.519287,157.066650 
	C453.882202,158.031937 450.845642,158.989349 447.417847,159.882004 
z"/>
<path fill="#44FA44" opacity="1.000000" stroke="none" 
	d="
M443.394958,163.903412 
	C443.854614,162.778397 444.624207,161.543732 445.697876,160.221161 
	C445.236267,161.353409 444.470581,162.573593 443.394958,163.903412 
z"/>
<path fill="#44FA44" opacity="1.000000" stroke="none" 
	d="
M430.206238,162.312973 
	C431.019257,162.472321 431.856445,162.948441 432.799042,163.709015 
	C432.013092,163.538879 431.121765,163.084320 430.206238,162.312973 
z"/>
<path fill="#43FC42" opacity="1.000000" stroke="none" 
	d="
M201.102890,278.823517 
	C200.389053,278.826660 199.485336,278.534912 198.315475,277.793579 
	C198.049332,277.343994 198.050873,276.938049 198.050873,276.938049 
	C199.004929,277.468231 199.958969,277.998444 201.102890,278.823517 
z"/>
<path fill="#44FA44" opacity="1.000000" stroke="none" 
	d="
M460.870758,269.200439 
	C460.910889,268.846161 461.078491,268.823273 461.496094,268.760376 
	C461.633362,269.409027 461.520630,270.097595 461.165619,270.864441 
	C460.948303,270.472412 460.973267,270.002136 460.870758,269.200439 
z"/>
<path fill="#42FC41" opacity="1.000000" stroke="none" 
	d="
M197.923386,276.655151 
	C198.050873,276.938049 198.049332,277.343994 198.056732,277.544647 
	C197.453537,277.313141 196.842911,276.880981 196.128403,276.166748 
	C196.614975,276.047180 197.205444,276.209717 197.923386,276.655151 
z"/>
<path fill="#44FA44" opacity="1.000000" stroke="none" 
	d="
M460.665009,271.026367 
	C460.464600,271.534088 459.984406,272.142761 459.221680,272.856842 
	C459.421173,272.350586 459.903198,271.738922 460.665009,271.026367 
z"/>
<path fill="#44FA44" opacity="1.000000" stroke="none" 
	d="
M434.036133,165.312286 
	C434.223267,165.248032 434.443909,165.449188 434.789459,165.843018 
	C434.651337,165.862732 434.369751,165.710068 434.036133,165.312286 
z"/>
<path fill="#44FA44" opacity="1.000000" stroke="none" 
	d="
M442.333069,164.962494 
	C442.260284,164.763702 442.458282,164.546005 442.849060,164.207916 
	C442.874176,164.353134 442.728180,164.638489 442.333069,164.962494 
z"/>
<path fill="#44FA44" opacity="1.000000" stroke="none" 
	d="
M433.042816,164.320740 
	C433.231781,164.254837 433.450592,164.454300 433.792114,164.846161 
	C433.563568,165.033615 433.282867,164.882797 433.042816,164.320740 
z"/>
<path fill="#43FC42" opacity="1.000000" stroke="none" 
	d="
M202.897522,279.727020 
	C202.682663,279.871765 202.346115,279.732574 201.806732,279.399323 
	C201.994537,279.284546 202.385178,279.363800 202.897522,279.727020 
z"/>
<path fill="#04FE05" opacity="1.000000" stroke="none" 
	d="
M466.390442,267.977081 
	C466.055145,261.638733 470.096832,257.018829 474.551605,254.206421 
	C476.984680,252.670364 482.990234,254.197327 485.722107,256.402557 
	C488.967743,259.022522 486.336212,263.175201 483.971436,266.011780 
	C482.871429,267.331299 480.985474,267.995575 479.097229,269.088440 
	C478.356598,269.158539 477.974518,269.097107 477.243347,268.643982 
	C474.404053,264.033844 471.658417,267.384888 469.005554,267.986084 
	C468.258026,267.993225 467.510529,268.000366 466.390442,267.977081 
z"/>
<path fill="#12FE12" opacity="1.000000" stroke="none" 
	d="
M469.345306,268.185760 
	C471.658417,267.384888 474.404053,264.033844 476.956482,268.592651 
	C474.574127,268.750458 472.129608,268.567963 469.345306,268.185760 
z"/>
<path fill="#000000" opacity="1.000000" stroke="none" 
	d="
M139.295441,253.028687 
	C134.367477,248.873947 129.826691,244.765808 126.439896,241.701691 
	C129.620041,232.061691 132.183533,224.290985 134.980026,215.813980 
	C145.158569,216.769760 155.761963,217.792343 163.921997,226.037735 
	C165.048798,227.176331 165.401672,229.075577 166.130554,230.614288 
	C168.060684,234.688812 170.469955,238.613846 171.785858,242.876999 
	C172.811493,246.199844 173.068787,249.049042 168.296280,251.761520 
	C160.163849,256.383606 152.289093,256.778320 143.763901,254.994308 
	C142.332306,254.694717 141.039536,253.731720 139.295441,253.028687 
z"/>
<path fill="#12FE12" opacity="1.000000" stroke="none" 
	d="
M181.020599,221.061157 
	C184.636261,220.176590 187.833435,219.290527 191.080505,218.662430 
	C191.815063,218.520325 192.723068,219.274933 193.551239,219.616760 
	C193.171722,220.446838 192.938278,221.884125 192.390747,222.015823 
	C184.249420,223.974457 176.069107,225.772186 167.883759,227.542084 
	C167.566284,227.610718 167.106400,227.020752 166.425064,225.108917 
	C171.156754,223.790298 175.888458,222.471664 181.020599,221.061157 
z"/>
<path fill="#12FE12" opacity="1.000000" stroke="none" 
	d="
M410.557861,141.143188 
	C406.281311,138.139496 402.295990,135.012619 398.311707,131.884445 
	C397.788422,131.473602 397.284760,131.036392 396.747742,130.644623 
	C386.648468,123.276985 386.332245,123.856216 396.114624,114.450165 
	C399.224945,111.459549 402.290985,108.316338 405.843567,105.940033 
	C407.465454,104.855171 410.955170,104.461502 412.329773,105.474663 
	C418.059509,109.697899 423.322083,114.557976 428.723969,119.221527 
	C430.687469,120.916649 431.094299,122.550743 428.824463,124.567131 
	C422.752625,129.961060 416.830841,135.523880 410.557861,141.143188 
z"/>
<path fill="#12FE12" opacity="1.000000" stroke="none" 
	d="
M228.298782,101.749763 
	C230.821152,105.274124 232.988708,108.623650 235.420593,111.768776 
	C237.634125,114.631508 237.305801,116.735893 234.382492,118.851311 
	C229.019089,122.732468 223.740829,126.735733 218.517258,130.803894 
	C215.735382,132.970413 213.950089,132.946503 211.727417,129.716492 
	C207.981522,124.272842 203.844193,119.045815 199.400970,114.155174 
	C196.872040,111.371582 197.323166,109.608902 199.864670,107.665657 
	C205.656662,103.237038 211.387878,98.713005 217.400070,94.602608 
	C218.508087,93.845070 221.287003,94.252281 222.479172,95.175262 
	C224.660339,96.863930 226.232819,99.338844 228.298782,101.749763 
z"/>
</svg>